<svg id="PapayaLogo" xmlns="http://www.w3.org/2000/svg" viewBox="0 0 64.76 64.76"><defs><style>.cls-1{fill:#99cc67;}.cls-2{fill:#fc6;}.cls-3{fill:#f79868;}.cls-4{fill:#343417;}</style></defs><title>papaya_logo_sign</title><path class="cls-1" d="M32.38,0A32.38,32.38,0,1,0,64.76,32.38h0A32.41,32.41,0,0,0,32.38,0Z" transform="translate(0)"/><path class="cls-2" d="M32.38,3.72A28.66,28.66,0,1,0,61,32.72q0-.17,0-.34A28.55,28.55,0,0,0,32.56,3.72Z" transform="translate(0)"/><path class="cls-3" d="M32.38,6.92a25.46,25.46,0,1,0-.82,50.91h1a25.19,25.19,0,0,0,25.28-25.1q0-.18,0-.35A25.35,25.35,0,0,0,32.59,6.92Z" transform="translate(0)"/><path class="cls-2" d="M41.24,25.06c-1-.18-3-.65-4.55-3.74a27.83,27.83,0,0,0-1.92-3.84C33.3,15.29,31,15.85,29.89,18c-1.28,2.4-1.52,5-4.19,6.31-3.42,1.67-6.43,1-8.1,2.47s.72,4.21,2,5.29c.54.48,2.48,2,2.85,3.67.57,2.51-.18,4.88-.33,7.51-.12,3.09,1.41,4.09,4.35,2.81,2.6-1.11,4.95-3.32,8-2.06,1.67.69,2.59,1.65,4.29,2.31,2,.76,3.72.87,3.9-1.58.12-1.48-1.73-7.76.62-10.29,1.65-1.78,3.37-3,4.25-5.28C48.92,25.72,43.39,25.48,41.24,25.06Z" transform="translate(0)"/><path class="cls-4" d="M43.69,29.78c-.69,1.66-1.94,2.6-3.16,3.92-1.75,1.88-.38,6.56-.47,7.66-.13,1.82-1.43,1.73-2.89,1.17-1.27-.49-2-1.2-3.2-1.72-2.3-.94-4,.7-6,1.53-2.18.92-3.36.21-3.23-2.09.11-2,.67-3.72.25-5.59a6.49,6.49,0,0,0-2.12-2.73c-1-.8-2.84-2.77-1.49-3.94s3.49-.59,6-1.84c2-1,2.15-2.91,3.11-4.7s2.54-2,3.64-.42a21.46,21.46,0,0,1,1.42,2.86A4.48,4.48,0,0,0,39,26.69C40.58,27,44.69,27.18,43.69,29.78Z" transform="translate(0)"/></svg>