<?xml version="1.0" encoding="UTF-8"?>
<svg width="510px" height="510px" viewBox="0 0 510 510" version="1.1" xmlns="http://www.w3.org/2000/svg" xmlns:xlink="http://www.w3.org/1999/xlink">
    <!-- Generator: Sketch 52.2 (67145) - http://www.bohemiancoding.com/sketch -->
    <title>xdr-coin.png copy</title>
    <desc>Created with Sketch.</desc>
    <g id="xdr-coin.png-copy" stroke="none" stroke-width="1" fill="none" fill-rule="evenodd">
        <circle id="Oval-Copy-18" fill="#211265" fill-rule="nonzero" cx="255" cy="255" r="250"></circle>
        <path d="M141.821896,105 L188.263445,105 L255.599808,216.059027 C256.172482,217.003547 257.40241,217.304988 258.346931,216.732315 C258.62182,216.565646 258.852484,216.33517 259.019376,216.060416 L326.480079,105 L370.494554,105 L307.093078,205.941964 C306.799326,206.409649 306.940326,207.026914 307.40801,207.320666 C307.567361,207.420754 307.751719,207.473849 307.939895,207.473849 L339.729157,207.473849 C343.042866,207.473849 345.729157,210.16014 345.729157,213.473849 L345.729157,233.40062 C345.729157,236.714328 343.042866,239.40062 339.729157,239.40062 L285.976598,239.40062 L280.075185,250.115598 C279.722462,250.756024 279.74731,251.537883 280.139987,252.154619 L285.976598,261.321563 L339.729157,261.321563 C343.042866,261.321563 345.729157,264.007855 345.729157,267.321563 L345.729157,287.621151 C345.729157,290.93486 343.042866,293.621151 339.729157,293.621151 L307.924963,293.621151 C307.372678,293.621151 306.924963,294.068867 306.924963,294.621151 C306.924963,294.806937 306.976718,294.989049 307.074425,295.147066 L375,405 L329.190898,405 L258.985762,284.225904 C258.430656,283.270953 257.206513,282.946815 256.251562,283.501921 C255.967091,283.667283 255.727812,283.900276 255.554939,284.180246 L180.952503,405 L136,405 L206.185451,295.159593 C206.482824,294.694203 206.346619,294.075862 205.88123,293.778489 C205.720436,293.675745 205.533604,293.621151 205.342788,293.621151 L168.724012,293.621151 C165.410303,293.621151 162.724012,290.93486 162.724012,287.621151 L162.724012,267.321563 C162.724012,264.007855 165.410303,261.321563 168.724012,261.321563 L226.817195,261.321563 L232.944066,252.192076 C233.370185,251.557127 233.39696,250.734781 233.013046,250.073459 L226.817195,239.40062 L168.724012,239.40062 C165.410303,239.40062 162.724012,236.714328 162.724012,233.40062 L162.724012,213.473849 C162.724012,210.16014 165.410303,207.473849 168.724012,207.473849 L205.344766,207.473849 C205.897051,207.473849 206.344766,207.026134 206.344766,206.473849 C206.344766,206.283344 206.29035,206.096802 206.187921,205.936177 L141.821896,105 Z" id="Path-2-Copy-15" fill="#FFFFFF" fill-rule="nonzero"></path>
    </g>
</svg>